<svg xmlns="http://www.w3.org/2000/svg" width="1170" height="333" viewBox="0 0 1170 333" version="1.1"><path d="M 101 129.384 C 99.075 130.121, 96.358 131.189, 94.961 131.757 C 93.565 132.325, 90.778 134.610, 88.768 136.835 C 81.603 144.766, 82 140.927, 82 202.311 L 82 257.721 84.500 261.405 C 85.875 263.431, 87 265.406, 87 265.794 C 87 267.305, 94.456 272.339, 99.337 274.123 C 104.103 275.865, 108.051 276, 154.277 276 C 201.687 276, 204.380 275.902, 210.291 273.963 C 217.240 271.683, 220.122 269.472, 224.500 263.064 L 227.500 258.673 227.774 203.517 C 228.076 142.779, 228.256 144.778, 221.842 137.473 C 220.103 135.492, 216.390 132.663, 213.590 131.186 L 208.500 128.500 156.500 128.272 C 115.012 128.090, 103.792 128.315, 101 129.384 M 183.455 163.455 C 180.566 166.344, 180.354 169.098, 182.716 173.096 C 186.325 179.205, 196 175.720, 196 168.311 C 196 165.615, 195.373 164.588, 192.750 162.989 C 188.474 160.382, 186.424 160.485, 183.455 163.455 M 151.438 165.662 C 149.237 168.036, 149.120 168.549, 150.349 170.412 C 152.293 173.358, 157.528 173.750, 158.969 171.058 C 159.782 169.539, 159.760 168.410, 158.885 166.750 C 156.543 162.302, 154.789 162.046, 151.438 165.662 M 168.587 164.903 C 166.516 167.192, 166.817 170.867, 169.197 172.359 C 171.576 173.850, 176.421 172.007, 176.788 169.473 C 177.445 164.937, 171.536 161.645, 168.587 164.903 M 119.175 168.669 C 119.599 170.870, 123.500 171.169, 123.500 169 C 123.500 168.175, 122.447 167.351, 121.161 167.169 C 119.347 166.912, 118.901 167.249, 119.175 168.669 M 136.175 168.669 C 136.599 170.870, 140.500 171.169, 140.500 169 C 140.500 168.175, 139.447 167.351, 138.161 167.169 C 136.347 166.912, 135.901 167.249, 136.175 168.669 M 166.174 180.314 C 160.728 186.112, 166.926 194.880, 174.449 192.020 C 179.027 190.279, 180.139 183.282, 176.427 179.570 C 174.058 177.201, 168.736 177.587, 166.174 180.314 M 151.452 182.647 C 148.904 185.396, 148.981 185.821, 152.747 189.814 C 154.131 191.282, 157.209 190.658, 158.953 188.557 C 160.631 186.535, 159.201 182.413, 156.376 181.125 C 154.223 180.144, 153.589 180.340, 151.452 182.647 M 185 182 C 182.422 184.578, 182.472 186.431, 185.189 188.961 C 187.815 191.408, 187.955 191.420, 190.777 189.443 C 193.640 187.439, 193.640 183.561, 190.777 181.557 C 187.917 179.553, 187.408 179.592, 185 182 M 134.200 182.200 C 132.345 184.055, 132.769 186.434, 135.394 188.900 C 137.495 190.874, 138.050 190.987, 139.931 189.825 C 142.589 188.182, 143.632 184.466, 141.989 182.487 C 140.506 180.700, 135.871 180.529, 134.200 182.200 M 119.323 184.601 C 118.556 186.599, 120.988 188.255, 122.657 186.870 C 124.170 185.614, 123.295 183, 121.362 183 C 120.578 183, 119.661 183.720, 119.323 184.601 M 150.008 196.492 C 143.519 203.399, 151.992 212.897, 159.777 207.443 C 163.260 205.004, 162.886 198.767, 159.096 196.068 C 155.272 193.346, 152.858 193.458, 150.008 196.492 M 118.750 198.080 C 116.740 199.251, 116.401 204.001, 118.200 205.800 C 119.536 207.136, 122.902 207.364, 124.615 206.235 C 126.951 204.696, 127.165 201.165, 125.051 199.051 C 122.779 196.779, 121.359 196.560, 118.750 198.080 M 135.751 197.689 C 133.496 198.279, 132.512 202.220, 133.950 204.907 C 135.427 207.667, 140.519 207.768, 141.965 205.066 C 143.417 202.353, 143.255 200.398, 141.429 198.571 C 139.846 196.989, 138.958 196.851, 135.751 197.689 M 168.750 198.056 C 165.286 200.121, 167.373 207, 171.464 207 C 175.628 207, 178.332 202.643, 176.225 199.329 C 175.126 197.601, 170.760 196.858, 168.750 198.056 M 185.797 197.680 C 183.739 198.222, 182.632 201.266, 183.499 203.998 C 184.248 206.356, 188.634 207.717, 190.905 206.296 C 193.249 204.830, 193.552 199.877, 191.395 198.299 C 189.583 196.975, 188.805 196.889, 185.797 197.680 M 135.315 212.007 C 128.877 214.601, 130.203 224.758, 137.210 226.516 C 140.618 227.372, 146.006 222.855, 145.985 219.161 C 145.967 216.003, 145.319 214.945, 142.027 212.692 C 139.279 210.811, 138.485 210.730, 135.315 212.007 M 152 215 C 149.426 217.574, 149.452 220.503, 152.065 222.333 C 157.501 226.140, 162.365 218.437, 157.169 214.250 C 155.069 212.558, 154.335 212.665, 152 215 M 117.607 215.582 C 116.426 218.659, 117.016 221.938, 118.935 222.965 C 122.309 224.771, 127 221.877, 127 217.990 C 127 214.579, 118.799 212.477, 117.607 215.582 M 168.200 215.200 C 164.916 218.484, 168.949 224.694, 173.318 223.078 C 176.544 221.885, 177.579 219.565, 176.217 216.578 C 174.931 213.754, 170.421 212.979, 168.200 215.200 M 186.480 218.032 C 186.092 218.660, 186.245 219.645, 186.820 220.220 C 188.164 221.564, 191.297 220.392, 190.750 218.749 C 190.194 217.078, 187.364 216.602, 186.480 218.032 M 116.174 230.314 C 111.672 235.107, 115.098 243, 121.680 243 C 124.654 243, 129 238.832, 129 235.980 C 129 233.588, 127.245 229.863, 125.600 228.765 C 123.264 227.205, 118.334 228.015, 116.174 230.314 M 134.626 232.517 C 132.417 234.726, 132.583 236.533, 135.221 238.992 C 138.022 241.600, 140.011 241.235, 141.966 237.752 C 143.129 235.679, 143.234 234.592, 142.399 233.259 C 140.928 230.908, 136.643 230.500, 134.626 232.517 M 150.604 233.155 C 148.855 235.651, 149.818 238.297, 153.117 240.063 C 154.821 240.975, 155.615 240.771, 157.594 238.911 C 160.400 236.276, 160.602 234.744, 158.429 232.571 C 156.198 230.341, 152.375 230.626, 150.604 233.155 M 169.323 234.601 C 168.556 236.599, 170.988 238.255, 172.657 236.870 C 174.170 235.614, 173.295 233, 171.362 233 C 170.578 233, 169.661 233.720, 169.323 234.601 M 186.351 234.527 C 185.618 236.437, 187.623 238.082, 189.708 237.282 C 191.596 236.557, 190.894 233.603, 188.735 233.188 C 187.778 233.003, 186.705 233.606, 186.351 234.527" stroke="none" fill="#0bcf6d" fill-rule="evenodd"/><path d="M 316.406 130.869 C 312.504 132.409, 308.241 134.418, 306.933 135.334 C 303.888 137.467, 303 137.435, 303 135.191 C 303 134.196, 302.374 132.527, 301.610 131.481 C 300.324 129.722, 298.958 129.601, 283.360 129.865 C 274.087 130.021, 266.156 130.482, 265.735 130.889 C 265.314 131.297, 264.864 154.924, 264.735 183.394 C 264.507 233.623, 264.558 235.200, 266.441 236.579 C 267.930 237.669, 272.157 238, 284.569 238 C 298.406 238, 300.954 237.760, 302.128 236.346 C 303.212 235.039, 303.525 228.802, 303.621 206.596 C 303.757 175.184, 304.200 172.665, 310.587 167.058 C 319.440 159.285, 331.171 161.159, 335.261 171 C 335.917 172.580, 336.230 184.780, 336.110 204.139 C 335.943 231.143, 336.112 234.969, 337.532 236.389 C 338.890 237.747, 341.881 238, 356.596 238 L 374.050 238 375.025 235.435 C 375.570 234, 376 221.079, 376 206.116 C 376 176.570, 376.732 171.538, 381.726 166.773 C 386.784 161.948, 393.896 160.676, 400.466 163.421 C 403.985 164.892, 406.322 168.309, 407.358 173.500 C 407.687 175.150, 408.044 189.550, 408.151 205.500 C 408.259 221.450, 408.734 235.287, 409.208 236.250 C 409.981 237.820, 411.919 238, 428 238 C 445.025 238, 445.985 237.897, 447.022 235.960 C 447.774 234.554, 447.998 222.646, 447.742 197.710 C 447.374 161.956, 447.339 161.422, 444.896 155.276 C 439.782 142.411, 431.856 134.532, 419.952 130.484 C 403.576 124.914, 385.189 128.404, 371.673 139.648 C 368.495 142.292, 365.483 142.700, 364.675 140.595 C 363.773 138.244, 355.131 132.869, 348.227 130.365 C 338.570 126.863, 326.055 127.061, 316.406 130.869 M 505.982 130.379 C 495.313 133.563, 488.540 137.520, 480.795 145.094 C 474.431 151.318, 469.034 160.031, 469.010 164.123 C 469.004 165.015, 468.149 167.715, 467.108 170.123 C 462.839 180.003, 463.560 191.888, 469.315 206.477 C 474.223 218.918, 484.485 228.530, 499.105 234.379 C 502.674 235.807, 508.048 237.446, 511.047 238.022 C 517.989 239.356, 538.907 239.389, 545.690 238.078 C 555.359 236.209, 569.066 228.569, 573.404 222.632 C 575.493 219.773, 575.493 219.759, 573.500 218.634 C 572.400 218.013, 567.882 213.791, 563.460 209.252 C 559.037 204.714, 554.656 201, 553.724 201 C 552.792 201, 549.135 202.535, 545.597 204.412 C 542.060 206.288, 536.607 208.355, 533.480 209.004 C 528.411 210.056, 527.067 209.951, 521.096 208.031 C 513.642 205.634, 505 199.117, 505 195.894 C 505 193.989, 505.857 193.951, 541.238 194.279 L 577.475 194.616 579.738 192.353 C 582.424 189.667, 582.567 186.457, 580.581 173.418 C 576.437 146.203, 553.241 127.859, 523.239 128.068 C 516.208 128.117, 511.409 128.760, 505.982 130.379 M 623.668 130.069 C 609.830 133.470, 598.972 141.089, 593.841 151 C 590.682 157.104, 590.041 169.201, 592.532 175.724 C 597.392 188.450, 610.319 195.334, 634.500 198.077 C 650.656 199.909, 656.414 203.603, 650.893 208.595 C 649.075 210.239, 647.188 210.500, 637.143 210.500 C 624.762 210.500, 615.459 208.453, 606.267 203.707 C 602.043 201.526, 602.030 201.526, 600.110 203.511 C 597.170 206.550, 588.774 225.713, 589.450 227.841 C 590.189 230.171, 592.550 231.363, 602.500 234.433 C 613.884 237.946, 621.652 238.984, 636.614 238.992 C 659.036 239.005, 670.546 235.450, 680.625 225.396 C 688.111 217.929, 689.511 214.302, 689.463 202.500 C 689.420 192.043, 688.421 189.585, 681.404 182.666 C 674.717 176.074, 664.752 172.618, 644.754 169.958 C 634.235 168.558, 630.727 166.419, 631.195 161.692 C 631.451 159.114, 632.068 158.467, 635 157.699 C 641.192 156.078, 655.774 157.427, 663 160.289 C 669.485 162.858, 671.335 163.342, 673.809 163.118 C 675.531 162.963, 686.364 140.392, 685.633 138.485 C 684.715 136.092, 679.286 133.327, 673.189 132.144 C 670.060 131.538, 663.964 130.357, 659.643 129.521 C 648.883 127.438, 633.416 127.674, 623.668 130.069 M 759.803 129.973 C 756.669 130.958, 751.825 133.167, 749.038 134.882 C 746.250 136.597, 743.527 138, 742.985 138 C 742.443 138, 742 136.414, 742 134.475 C 742 131.712, 741.514 130.786, 739.750 130.189 C 736.871 129.215, 706.431 130.227, 705.329 131.333 C 704.873 131.791, 704.500 155.340, 704.500 183.663 C 704.500 233.486, 704.563 235.207, 706.441 236.580 C 709.081 238.511, 740.215 238.651, 741.801 236.740 C 742.452 235.956, 743.006 224.719, 743.267 206.990 C 743.724 175.986, 744.104 173.699, 749.803 167.627 C 753.457 163.734, 757.905 161.999, 764.218 162.004 C 770.793 162.008, 774.983 164.401, 777.580 169.632 C 779.311 173.120, 779.549 176.549, 780 204.500 C 780.275 221.550, 780.864 236.063, 781.309 236.750 C 782.294 238.272, 815.629 238.519, 818 237.022 C 819.966 235.781, 820.470 213.297, 819.235 181.968 C 818.389 160.533, 818.214 159.145, 815.624 153.468 C 811.678 144.817, 808.377 140.458, 802.666 136.355 C 791.919 128.635, 773.017 125.820, 759.803 129.973 M 863.500 130.950 C 857.450 132.457, 849.913 134.861, 846.750 136.290 C 841.489 138.669, 841 139.162, 841 142.090 C 841 143.850, 842.606 148.712, 844.570 152.895 C 852.203 169.157, 852.362 169.317, 857.322 165.629 C 862.537 161.752, 872.417 159, 881.123 159 C 889.464 159, 892.615 160.538, 891.671 164.149 C 891.405 165.167, 891.622 166, 892.153 166 C 892.684 166, 892.896 166.359, 892.625 166.798 C 892.354 167.237, 892.534 168.245, 893.024 169.039 C 893.735 170.189, 894.170 170.230, 895.158 169.242 C 896.999 167.401, 899.788 167.736, 900.968 169.939 C 901.538 171.006, 901.667 172.060, 901.253 172.282 C 900.839 172.504, 894.810 172.750, 887.856 172.829 C 872.323 173.005, 856.971 175.760, 850.547 179.525 C 844.054 183.331, 837.483 191.024, 836.127 196.410 C 834.718 202.007, 834.684 211.321, 836.054 216.257 C 836.628 218.323, 839.385 222.762, 842.180 226.121 C 846.071 230.796, 848.815 232.959, 853.881 235.347 C 859.839 238.154, 861.644 238.504, 871.950 238.847 C 885.835 239.310, 892.287 238.017, 899.149 233.400 C 901.971 231.501, 904.402 230.071, 904.550 230.223 C 904.699 230.376, 905.226 232.075, 905.723 234 L 906.625 237.500 923.136 237.773 C 938.470 238.027, 939.774 237.907, 941.425 236.082 C 943.046 234.292, 943.194 231.619, 943.102 205.809 C 942.989 173.925, 942.604 168.270, 939.907 158.906 C 934.127 138.833, 915.031 127.931, 886 128.130 C 877 128.192, 872.109 128.805, 863.500 130.950 M 1015.085 130.486 C 1011.557 131.796, 1007.413 133.797, 1005.876 134.934 C 1002.250 137.614, 1002 137.558, 1002 134.059 C 1002 132.441, 1001.444 130.775, 1000.766 130.355 C 1000.087 129.935, 992.099 129.711, 983.016 129.856 C 969.016 130.079, 966.307 130.372, 965.230 131.777 C 963.410 134.155, 963.899 273.300, 965.734 275.135 C 967.395 276.795, 997.710 276.761, 1000.822 275.095 C 1002.942 273.960, 1003 273.422, 1003.014 254.715 C 1003.021 244.147, 1003.287 234.531, 1003.605 233.347 C 1004.172 231.232, 1004.281 231.252, 1009.841 234.537 C 1023.531 242.623, 1048.657 240.587, 1062.936 230.234 C 1074.526 221.831, 1082.364 208.192, 1084.191 193.250 C 1086.814 171.796, 1080.641 152.955, 1066.959 140.653 C 1064.113 138.094, 1061.212 136, 1060.514 136 C 1059.816 136, 1058.696 135.339, 1058.026 134.531 C 1057.355 133.723, 1053.073 131.923, 1048.509 130.531 C 1037.186 127.077, 1024.312 127.060, 1015.085 130.486 M 81.466 202 C 81.466 231.425, 81.593 243.463, 81.749 228.750 C 81.905 214.037, 81.905 189.963, 81.749 175.250 C 81.593 160.537, 81.466 172.575, 81.466 202 M 228.464 201.500 C 228.464 229, 228.592 240.106, 228.749 226.180 C 228.906 212.255, 228.906 189.755, 228.749 176.180 C 228.592 162.606, 228.464 174, 228.464 201.500 M 514.121 159.169 C 510.025 161.196, 504 168.539, 504 171.503 C 504 172.704, 541.020 172.724, 542.962 171.523 C 544.361 170.659, 541.507 165.152, 538.131 162.199 C 531.676 156.553, 521.898 155.319, 514.121 159.169 M 1013.264 162.502 C 1010.783 164.022, 1007.882 167.045, 1006.264 169.798 C 1003.763 174.053, 1003.502 175.404, 1003.521 184.011 C 1003.539 192.129, 1003.874 194.060, 1005.809 197.191 C 1011.347 206.151, 1019.130 209.468, 1029.177 207.148 C 1039.764 204.705, 1045.263 196.771, 1045.263 183.943 C 1045.263 174.354, 1042.384 167.924, 1036.116 163.516 C 1032.530 160.994, 1030.763 160.484, 1024.687 160.220 C 1018.393 159.947, 1016.974 160.230, 1013.264 162.502 M 888 194.939 C 876.163 196.016, 871.670 199.566, 873.404 206.472 C 874.347 210.229, 877.744 212.799, 883.458 214.078 C 888.056 215.107, 889.053 215.012, 892.561 213.208 C 894.727 212.095, 897.831 209.782, 899.459 208.069 C 901.945 205.452, 902.424 204.121, 902.459 199.728 L 902.500 194.500 899 194.378 C 897.075 194.312, 892.125 194.564, 888 194.939 M 153.688 217.646 C 152.314 219.020, 153.026 221.142, 154.750 220.810 C 155.713 220.624, 156.500 219.841, 156.500 219.070 C 156.500 217.491, 154.736 216.598, 153.688 217.646" stroke="none" fill="#f3f3f3" fill-rule="evenodd"/></svg>