<svg xmlns="http://www.w3.org/2000/svg" width="720" height="228" viewBox="0 0 720 228" version="1.1"><path d="M 87 69.700 C 81.361 71.740, 78.652 73.738, 76.466 77.468 L 74 81.676 74 113.378 C 74 148.789, 74.172 149.793, 81.150 155 L 84.500 157.500 118 157.500 L 151.500 157.500 154.772 155.046 C 156.571 153.696, 158.933 151.083, 160.022 149.239 C 161.883 146.084, 162 143.972, 162 113.582 L 162 81.279 159.378 77.390 C 154.141 69.620, 151.061 69.025, 116.500 69.098 C 101.100 69.131, 87.825 69.402, 87 69.700 M 214.135 71 C 212.284 71.437, 209.471 72.754, 207.885 73.927 L 205 76.060 205 73.530 L 205 71 194 71 L 183 71 183 103.032 L 183 135.063 194.750 134.782 L 206.500 134.500 207 114.900 C 207.552 93.256, 207.693 92.771, 213.971 90.890 C 218.376 89.571, 221.052 90.624, 223.750 94.739 C 225.224 96.986, 225.554 100.374, 225.844 116.204 L 226.187 135 237.594 135 L 249 135 249 117.468 C 249 97.699, 249.812 94.183, 254.994 91.503 C 258.750 89.561, 262.982 90.219, 265.646 93.159 C 267.295 94.979, 267.536 97.408, 267.825 115.103 L 268.150 135 280.075 135 L 292 135 292 113.657 C 292 94.822, 291.762 91.621, 289.973 86.421 C 286.258 75.623, 278.043 70, 265.981 70 C 258.884 70, 251.932 72.051, 247.455 75.467 L 244 78.102 240.502 75.434 C 238.578 73.966, 235.316 72.163, 233.252 71.427 C 229.148 69.962, 219.444 69.746, 214.135 71 M 324.324 71.439 C 315.519 74.193, 307.583 81.278, 303.673 89.878 C 300.537 96.775, 300.659 109.738, 303.923 116.399 C 308.414 125.567, 315.452 131.412, 325.770 134.543 C 332.486 136.581, 345.206 136.378, 352.651 134.114 C 358.380 132.372, 366 127.556, 366 125.677 C 366 125.224, 363.452 121.970, 360.339 118.445 L 354.677 112.036 351.217 114.175 C 343.587 118.891, 331.774 118.300, 328.011 113.015 C 326.905 111.462, 326 109.923, 326 109.596 C 326 109.268, 335.891 109, 347.981 109 L 369.962 109 370.610 106.416 C 371.341 103.505, 370.602 96.352, 368.994 90.775 C 366.525 82.212, 356.238 73.075, 346.784 71.047 C 340.245 69.645, 329.461 69.833, 324.324 71.439 M 393.803 71.334 C 380.516 75.096, 373.696 85.728, 376.911 97.669 C 379.057 105.638, 385.484 108.797, 407.214 112.565 C 411.832 113.366, 413.639 115.225, 411.515 116.988 C 408.280 119.672, 386.511 117.255, 384.492 113.987 C 382.702 111.091, 380.866 113.555, 376.438 124.797 C 374.817 128.912, 374.825 129.152, 376.623 130.473 C 380.068 133.006, 389.398 135.161, 399.340 135.722 C 421.845 136.990, 435 128.977, 435 114 C 435 103.480, 429.669 99.029, 412.228 94.987 C 405.778 93.492, 399.600 91.908, 398.500 91.465 C 396.527 90.672, 396.526 90.690, 398.405 92.830 C 399.550 94.134, 401.485 95, 403.255 95 C 404.874 95, 410.542 96.152, 415.850 97.560 C 427.015 100.522, 431.063 103.580, 433.007 110.525 C 434.048 114.241, 433.965 115.526, 432.424 119.561 C 430.558 124.445, 427.292 128.208, 423 130.418 C 418.745 132.608, 407.478 134.974, 401.857 134.858 C 396.259 134.742, 379.397 130.797, 377.839 129.239 C 376.678 128.078, 380.872 116.986, 382.744 116.268 C 383.509 115.974, 385.117 116.223, 386.317 116.820 C 390.404 118.853, 396.487 119.989, 403.316 119.994 C 411.352 120.001, 414 118.872, 414 115.440 C 414 112.544, 411.471 111.282, 403 109.953 C 384.974 107.124, 379.010 103.170, 378.209 93.513 C 377.645 86.704, 379.067 83.075, 384.076 78.551 C 389.909 73.281, 396.826 71.659, 410.910 72.258 C 424.134 72.822, 430.700 74.651, 430.155 77.620 C 429.545 80.937, 425.984 88, 424.922 88 C 424.357 88, 420.724 87.279, 416.848 86.397 C 408.958 84.603, 399.933 85.170, 397.927 87.587 C 396.112 89.775, 397.549 90.429, 400.158 88.602 C 403.786 86.061, 412.530 86.729, 424.500 90.461 C 426.212 90.995, 426.981 90.008, 429.845 83.601 C 431.685 79.485, 432.903 75.653, 432.552 75.085 C 430.220 71.310, 403.144 68.690, 393.803 71.334 M 476.321 70.961 C 474.573 71.378, 471.563 72.650, 469.632 73.790 L 466.121 75.861 465.810 73.681 C 465.515 71.607, 464.947 71.486, 454.250 71.217 L 443 70.934 443 102.967 L 443 135 455 135 L 467 135 467.006 118.250 C 467.009 109.037, 467.472 99.841, 468.035 97.813 C 470.072 90.479, 480.134 87.693, 485.440 92.994 C 487.358 94.910, 487.522 96.427, 487.825 115.026 L 488.150 135 500.075 135 L 512 135 512 113.838 C 512 96.535, 511.683 91.657, 510.260 87.088 C 507.935 79.625, 501.316 72.821, 494.779 71.175 C 489.646 69.882, 481.262 69.785, 476.321 70.961 M 541.500 70.609 C 534.501 71.611, 529.302 73.301, 526.387 75.522 L 523.274 77.893 526.826 85.446 C 530.674 93.627, 531.669 94.199, 536.500 91 C 538.150 89.907, 540.513 89.010, 541.750 89.007 C 542.987 89.003, 544 88.550, 544 88 C 544 86.431, 541.272 86.821, 537 89 C 534.844 90.100, 532.694 91, 532.224 91 C 531.753 91, 530.082 88.309, 528.510 85.021 C 525.790 79.331, 525.736 78.950, 527.376 77.137 C 530.369 73.830, 537.530 72.496, 552 72.551 C 567.355 72.608, 570.241 73.461, 576.117 79.675 C 581.747 85.628, 582.278 88.181, 582.761 111.649 L 583.196 132.798 580.348 133.365 C 576.785 134.075, 566.733 133.571, 565.169 132.604 C 564.526 132.207, 564 130.784, 564 129.441 C 564 126.635, 562.823 126.303, 560.935 128.578 C 560.215 129.446, 557.368 131.300, 554.609 132.698 C 548.435 135.827, 541.422 135.515, 532.909 131.734 C 525.356 128.379, 523 124.551, 523 115.632 C 523 109.243, 523.144 108.856, 526.947 105.053 C 529.252 102.748, 532.477 100.709, 534.697 100.153 C 536.789 99.629, 539.850 98.835, 541.500 98.387 L 544.500 97.574 540.646 97.220 C 535.780 96.774, 527.161 100.939, 523.943 105.291 C 521.450 108.663, 520.351 115.729, 521.427 121.465 C 522.991 129.798, 533.222 136.021, 545.288 135.978 C 551.627 135.956, 558.950 133.507, 560.584 130.864 C 561.195 129.876, 561.570 130.179, 562.002 132.010 C 562.585 134.476, 562.696 134.500, 573.545 134.500 L 584.500 134.500 585 129.500 C 585.740 122.101, 584.419 93.133, 583.126 88.404 C 581.342 81.881, 576.839 76.558, 570.468 73.440 C 565.557 71.038, 563.418 70.630, 554.645 70.421 C 549.065 70.288, 543.150 70.373, 541.500 70.609 M 626.741 71.429 C 624.673 72.167, 622.365 73.282, 621.613 73.906 C 620.542 74.795, 620.129 74.602, 619.716 73.021 C 619.225 71.146, 618.385 71, 608.083 71 L 596.979 71 597.239 114.250 L 597.500 157.500 608.419 157.786 C 616.481 157.996, 619.551 157.735, 620.154 156.786 C 620.602 156.078, 620.976 150.044, 620.985 143.375 L 621 131.251 625.250 133.368 C 631.922 136.692, 643.007 136.860, 650.007 133.745 C 661.855 128.473, 667.962 119.077, 668.771 104.875 C 669.102 99.077, 668.917 96, 668.238 96 C 667.625 96, 667.053 99.591, 666.844 104.750 C 666.301 118.150, 660.984 126.838, 650.042 132.202 C 643.134 135.589, 632.116 135.368, 625.808 131.716 C 623.227 130.222, 620.864 129, 620.558 129 C 620.251 129, 620 134.363, 620 140.918 C 620 147.473, 619.727 153.548, 619.393 154.418 C 618.904 155.694, 617.111 155.997, 610.143 155.985 C 600.788 155.968, 599.147 155.455, 598.866 152.456 C 598.766 151.380, 598.754 133.063, 598.842 111.750 L 599 73 607.992 73 C 615.743 73, 617.147 73.262, 618.170 74.900 C 619.399 76.868, 621.313 76.707, 624.012 74.408 C 626.571 72.229, 637.450 70.969, 643.812 72.115 C 653.260 73.817, 660.009 79.307, 665.025 89.372 C 667.250 93.836, 667.952 94.686, 667.612 92.500 C 666.217 83.541, 656.100 73.045, 646.971 71.087 C 640.195 69.634, 631.353 69.783, 626.741 71.429 M 83.830 73.027 C 81.812 74.093, 79.112 76.436, 77.830 78.233 C 75.525 81.466, 75.497 81.832, 75.211 113.046 L 74.922 144.592 78.052 148.914 C 79.774 151.290, 82.042 153.460, 83.091 153.734 C 84.141 154.009, 85 154.648, 85 155.155 C 85 155.705, 98.551 155.960, 118.573 155.788 L 152.146 155.500 156.073 151.289 L 160 147.077 160 113.998 C 160 81.267, 159.976 80.887, 157.750 77.860 C 156.512 76.177, 153.830 73.945, 151.790 72.900 C 148.380 71.154, 145.631 71.004, 117.790 71.044 C 89.799 71.085, 87.221 71.236, 83.830 73.027 M 215.576 72.530 C 212.867 73.274, 209.375 74.825, 207.815 75.979 L 204.979 78.075 204.014 75.538 C 203.080 73.080, 202.767 73, 194.025 73 L 185 73 184.817 100.250 C 184.599 132.638, 184.577 132.115, 186.211 133.152 C 188.254 134.448, 202.436 134.164, 203.800 132.800 C 204.638 131.962, 205.004 126.460, 205.015 114.550 C 205.025 103.009, 205.429 96.723, 206.265 95.096 C 208.349 91.042, 212.596 88.559, 217.140 88.740 C 225.393 89.069, 227 93.469, 227 115.744 C 227 133.986, 227.175 134.421, 234.172 133.620 C 236.552 133.347, 240.412 133.096, 242.750 133.062 L 247 133 247.006 117.250 C 247.013 95.622, 248.459 91.348, 256.521 89.122 C 259.358 88.339, 260.892 88.458, 263.408 89.657 C 269.099 92.371, 269.468 93.744, 269.823 113.500 C 270.001 123.400, 270.505 131.869, 270.943 132.320 C 272.092 133.502, 284.948 133.970, 287.685 132.930 L 290 132.050 290 111.152 C 290 87.587, 289.238 84.219, 282.453 77.814 C 277.835 73.454, 273.978 72.159, 265.500 72.120 C 256.477 72.078, 252.544 73.445, 244.472 79.424 C 243.616 80.058, 241.926 79.236, 239.088 76.807 C 236.179 74.317, 233.277 72.930, 229.309 72.133 C 222.558 70.777, 221.892 70.797, 215.576 72.530 M 329.871 72.017 C 322.436 73.274, 316.346 76.521, 311.032 82.063 C 303.286 90.142, 300.947 101.812, 304.692 113.692 C 309.873 130.128, 334.169 139.733, 352.239 132.491 C 355.683 131.111, 359.850 128.887, 361.500 127.548 L 364.500 125.115 359.257 119.826 L 354.014 114.538 350.757 116.245 C 342.791 120.422, 333.779 120.016, 328.184 115.228 C 326.431 113.728, 324.885 111.375, 324.748 110 L 324.500 107.500 346.689 107.231 C 372.206 106.922, 371.056 107.438, 368.955 97.243 C 365.957 82.695, 356.947 74.140, 342.411 72.039 C 338.610 71.489, 335.275 71.084, 335 71.137 C 334.725 71.191, 332.417 71.587, 329.871 72.017 M 478.737 72.384 C 475.567 73.077, 471.648 74.624, 470.027 75.822 C 466.204 78.648, 465 78.571, 465 75.500 L 465 73 455 73 L 445 73 445 102.378 C 445 126.369, 445.257 131.969, 446.403 132.920 C 447.293 133.658, 450.859 133.977, 456.153 133.792 L 464.500 133.500 465 115.500 C 465.470 98.587, 465.643 97.300, 467.868 94.181 C 472.215 88.085, 480.763 87.031, 486.234 91.916 L 489.500 94.833 490 113.597 L 490.500 132.361 493 132.997 C 496.201 133.811, 507.335 133.529, 508.846 132.595 C 509.658 132.093, 510 125.680, 510 110.936 C 510 90.874, 509.899 89.780, 507.600 85.014 C 502.428 74.294, 491.625 69.567, 478.737 72.384 M 331.418 85.915 C 328.278 87.266, 324 92.838, 324 95.577 L 324 98 335.750 97.985 C 349.472 97.967, 350.854 97.475, 349.097 93.234 C 346.643 87.309, 337.234 83.414, 331.418 85.915 M 545.877 87.097 C 544.944 87.688, 545.661 87.974, 548.101 87.985 C 553.558 88.008, 557.412 89.735, 559.358 93.029 L 561.113 96 553.616 96 C 549.492 96, 545.840 96.450, 545.500 97 C 545.107 97.635, 547.833 98, 552.972 98 C 559.388 98, 561.187 97.676, 561.663 96.436 C 562.490 94.281, 560.556 90.397, 557.796 88.670 C 554.937 86.882, 547.721 85.929, 545.877 87.097 M 330.893 88.440 C 328.583 89.746, 325 94.017, 325 95.465 C 325 95.759, 330.175 96, 336.500 96 C 343.377 96, 348 95.604, 348 95.016 C 348 94.474, 346.748 92.630, 345.218 90.917 C 341.885 87.188, 335.166 86.026, 330.893 88.440 M 626 88.795 C 622.426 91.210, 621.179 92.978, 619.941 97.386 C 618.173 103.680, 619.656 110.856, 623.525 114.725 C 626.493 117.693, 627.359 118, 632.765 118 C 640.039 118, 643.080 115.976, 645.559 109.485 C 647.019 105.662, 647.105 104.148, 646.136 99.324 C 645.510 96.206, 644.250 92.829, 643.337 91.820 C 639.059 87.093, 630.681 85.631, 626 88.795 M 133.705 90.018 C 132.134 91.253, 130.896 91.641, 130.511 91.018 C 130.165 90.458, 128.814 90, 127.508 90 C 124.845 90, 123.474 92.769, 124.515 96.048 C 125.570 99.372, 123.344 101.079, 118.883 100.365 C 114.646 99.688, 114.756 99.530, 114.593 106.500 L 114.500 110.500 109.750 110.200 C 104.611 109.875, 104.425 110.115, 104.932 116.390 C 105.224 120.006, 103.796 120.917, 98.873 120.256 C 94.713 119.698, 94.444 120.093, 94.892 126.092 C 94.999 127.518, 94.391 129.260, 93.543 129.964 C 89.975 132.925, 93.089 139, 98.174 139 C 99.558 139, 101.487 138.120, 102.460 137.044 C 104.010 135.331, 104.412 135.269, 105.687 136.544 C 107.727 138.584, 109.636 138.358, 111.380 135.868 C 112.683 134.008, 112.690 133.457, 111.436 131.543 C 110.131 129.552, 110.215 129.146, 112.349 127.141 C 114.433 125.184, 114.844 125.107, 115.972 126.467 C 117.705 128.555, 118.838 128.397, 121.117 125.750 L 123.055 123.500 124.649 125.750 C 126.750 128.714, 129.764 128.612, 131.168 125.530 C 133.249 120.964, 127.467 117.754, 124.360 121.750 C 123.073 123.406, 122.919 123.395, 121.487 121.541 C 120.119 119.770, 120.155 119.401, 121.855 117.700 C 123.437 116.118, 124.055 116.017, 125.736 117.067 C 129.625 119.496, 133.496 115.625, 131.067 111.736 C 130.013 110.048, 130.124 109.431, 131.778 107.778 C 133.431 106.124, 134.048 106.013, 135.736 107.067 C 136.835 107.754, 138.528 108.011, 139.497 107.640 C 140.905 107.099, 141.152 106.172, 140.730 103.021 C 140.368 100.325, 140.643 98.711, 141.600 97.917 C 143.793 96.097, 143.324 91.341, 140.777 89.557 C 137.871 87.521, 136.789 87.592, 133.705 90.018 M 626.117 90.631 C 618.504 95.963, 619.647 112.283, 627.875 115.721 C 636.676 119.399, 645 113.192, 645 102.951 C 645 98.102, 642.618 92.546, 639.647 90.465 C 636.837 88.497, 629.027 88.593, 626.117 90.631 M 114.512 91.962 C 113.662 94.639, 115.635 98, 118.057 98 C 120.763 98, 122.767 93.630, 121.025 91.530 C 119.199 89.329, 115.265 89.591, 114.512 91.962 M 135.200 91.200 C 133.400 93, 133.753 95.798, 135.928 96.961 C 139.664 98.961, 142.961 95.664, 140.961 91.928 C 139.798 89.753, 137 89.400, 135.200 91.200 M 107.160 92.240 C 105.355 94.045, 105.792 96, 108 96 C 109.313 96, 110 95.333, 110 94.059 C 110 91.596, 108.661 90.739, 107.160 92.240 M 96.667 92.667 C 95.290 94.043, 96.073 96, 98 96 C 99.333 96, 100 95.333, 100 94 C 100 92.073, 98.043 91.290, 96.667 92.667 M 118.527 92.956 C 118.202 93.482, 117.214 93.636, 116.332 93.297 C 115.239 92.878, 114.875 93.131, 115.192 94.091 C 115.448 94.866, 116.634 95.644, 117.828 95.820 C 119.461 96.060, 120 95.625, 120 94.070 C 120 91.836, 119.468 91.434, 118.527 92.956 M 125.446 93.087 C 124.501 94.616, 126.552 96.386, 128.433 95.664 C 129.295 95.333, 130 94.374, 130 93.531 C 130 91.784, 126.465 91.439, 125.446 93.087 M 130.563 96.898 C 130.213 97.464, 130.843 98.843, 131.964 99.964 C 134.348 102.348, 135 102.496, 135 100.655 C 135 98.719, 131.348 95.628, 130.563 96.898 M 104.512 101.962 C 103.674 104.604, 105.624 108, 107.978 108 C 109.028 108, 110.578 107.013, 111.423 105.806 C 112.812 103.824, 112.802 103.439, 111.325 101.806 C 109.130 99.381, 105.304 99.468, 104.512 101.962 M 125.200 101.200 C 123.493 102.907, 123.716 105.742, 125.642 106.820 C 127.942 108.107, 130.819 107.144, 131.549 104.844 C 132.731 101.121, 127.996 98.404, 125.200 101.200 M 97.027 102.467 C 95.645 104.133, 96.454 106, 98.559 106 C 100.120 106, 100.562 102.466, 99.113 101.570 C 98.626 101.269, 97.687 101.672, 97.027 102.467 M 106 104 C 106 105.333, 106.667 106, 108 106 C 109.333 106, 110 105.333, 110 104 C 110 102.667, 109.333 102, 108 102 C 106.667 102, 106 102.667, 106 104 M 115.625 102.798 C 114.744 104.223, 116.754 106.308, 118.399 105.677 C 120.659 104.810, 120.399 102, 118.059 102 C 116.991 102, 115.896 102.359, 115.625 102.798 M 135.500 103 C 134.577 104.494, 135.861 106, 138.059 106 C 139.333 106, 140 105.313, 140 104 C 140 101.879, 136.653 101.135, 135.500 103 M 120.415 107.137 C 120.022 107.773, 120.768 109.076, 122.106 110.093 C 124.143 111.640, 124.550 111.687, 124.833 110.407 C 125.183 108.823, 123.328 106, 121.937 106 C 121.486 106, 120.802 106.512, 120.415 107.137 M 545.250 109.989 C 539.702 113.372, 541.184 119.218, 548.273 121.914 C 553.978 124.083, 563 117.993, 563 111.972 C 563 108.627, 561.602 107.999, 554.168 108.004 C 550.283 108.006, 547.478 108.631, 545.250 109.989 M 548.585 110.044 C 545.251 111.040, 544.037 112.550, 544.015 115.724 C 543.996 118.601, 549.082 121.361, 552.871 120.528 C 557.022 119.617, 561 115.424, 561 111.960 C 561 109.083, 560.866 109.002, 556.250 109.086 C 553.638 109.133, 550.188 109.564, 548.585 110.044 M 95.153 111.750 C 93.904 114.135, 95.507 118, 97.746 118 C 98.741 118, 100.331 117.094, 101.279 115.988 C 102.707 114.320, 102.789 113.635, 101.760 111.988 C 100.226 109.532, 96.388 109.393, 95.153 111.750 M 115.040 111.452 C 112.968 113.948, 114.208 116.470, 117.673 116.807 C 120.154 117.048, 120.972 116.664, 121.497 115.009 C 122.772 110.992, 117.728 108.213, 115.040 111.452 M 134.530 111.904 C 133.686 114.564, 135.592 118, 137.913 118 C 142.555 118, 142.446 110.738, 137.796 110.192 C 135.880 109.967, 134.999 110.429, 134.530 111.904 M 96 113.531 C 96 115.588, 98.990 116.634, 100.035 114.943 C 101.142 113.152, 100.323 112, 97.941 112 C 96.865 112, 96 112.682, 96 113.531 M 105.736 112.598 C 104.646 113.688, 106.185 116, 108 116 C 109.815 116, 111.354 113.688, 110.264 112.598 C 109.936 112.269, 108.917 112, 108 112 C 107.083 112, 106.064 112.269, 105.736 112.598 M 125.625 112.798 C 124.744 114.223, 126.754 116.308, 128.399 115.677 C 130.659 114.810, 130.399 112, 128.059 112 C 126.991 112, 125.896 112.359, 125.625 112.798 M 135.446 113.087 C 134.501 114.616, 136.552 116.386, 138.433 115.664 C 139.295 115.333, 140 114.374, 140 113.531 C 140 111.784, 136.465 111.439, 135.446 113.087 M 110.461 117.064 C 110.097 117.652, 110.632 118.764, 111.650 119.535 C 114.046 121.350, 115 121.350, 115 119.535 C 115 117.586, 111.362 115.605, 110.461 117.064 M 105.518 120.625 C 104.625 121.518, 104.030 123.206, 104.197 124.375 C 104.440 126.079, 105.193 126.500, 108 126.500 C 110.807 126.500, 111.560 126.079, 111.803 124.375 C 112.097 122.318, 109.749 119, 108 119 C 107.529 119, 106.412 119.731, 105.518 120.625 M 97.071 121.956 C 95.415 122.980, 96.379 126, 98.362 126 C 99.145 126, 100.032 125.358, 100.334 124.573 C 101.059 122.682, 98.812 120.880, 97.071 121.956 M 116.200 122.200 C 114.712 123.688, 115.872 126, 118.107 126 C 119.298 126, 120 125.298, 120 124.107 C 120 121.872, 117.688 120.712, 116.200 122.200 M 126.130 122.343 C 124.745 124.012, 126.401 126.444, 128.399 125.677 C 129.280 125.339, 130 124.422, 130 123.638 C 130 121.705, 127.386 120.830, 126.130 122.343 M 135.964 122.543 C 134.845 123.892, 134.861 124.299, 136.064 125.060 C 138.063 126.323, 139.500 125.671, 139.500 123.500 C 139.500 121.054, 137.622 120.546, 135.964 122.543 M 101 127.345 C 101 128.085, 101.844 129.454, 102.876 130.388 C 104.463 131.824, 104.839 131.862, 105.309 130.637 C 105.615 129.840, 105.073 128.471, 104.104 127.594 C 101.952 125.647, 101 125.570, 101 127.345 M 95.655 130.829 C 92.559 134.249, 94.057 137, 99.014 137 C 101.348 137, 102.453 133.715, 101.020 131.038 C 99.669 128.512, 97.817 128.440, 95.655 130.829 M 114.337 131.564 C 113.521 133.692, 115.608 138, 117.456 138 C 119.494 138, 122.193 133.666, 121.416 131.641 C 120.593 129.496, 115.153 129.437, 114.337 131.564 M 106.336 132.567 C 105.502 134.739, 107.618 136.782, 109.133 135.267 C 110.413 133.987, 109.620 131, 108 131 C 107.415 131, 106.667 131.705, 106.336 132.567 M 116.110 132.367 C 115.246 133.409, 115.346 134.042, 116.530 135.025 C 118.441 136.611, 120.574 134.939, 119.664 132.567 C 118.923 130.637, 117.608 130.563, 116.110 132.367 M 125.964 132.543 C 124.845 133.892, 124.861 134.299, 126.064 135.060 C 128.063 136.323, 129.500 135.671, 129.500 133.500 C 129.500 131.054, 127.622 130.546, 125.964 132.543 M 135.667 131.667 C 134.149 133.185, 135.147 135, 137.500 135 C 139.333 135, 140 134.467, 140 133 C 140 131.049, 137.159 130.175, 135.667 131.667" stroke="none" fill="#50c78b" fill-rule="evenodd"/><path d="M 83.830 73.027 C 81.812 74.093, 79.112 76.436, 77.830 78.233 C 75.525 81.466, 75.497 81.832, 75.211 113.046 L 74.922 144.592 78.052 148.914 C 79.774 151.290, 82.042 153.460, 83.091 153.734 C 84.141 154.009, 85 154.648, 85 155.155 C 85 155.705, 98.551 155.960, 118.573 155.788 L 152.146 155.500 156.073 151.289 L 160 147.077 160 113.998 C 160 81.267, 159.976 80.887, 157.750 77.860 C 156.512 76.177, 153.830 73.945, 151.790 72.900 C 148.380 71.154, 145.631 71.004, 117.790 71.044 C 89.799 71.085, 87.221 71.236, 83.830 73.027 M 215.576 72.530 C 212.867 73.274, 209.375 74.825, 207.815 75.979 L 204.979 78.075 204.014 75.538 C 203.080 73.080, 202.767 73, 194.025 73 L 185 73 184.817 100.250 C 184.599 132.638, 184.577 132.115, 186.211 133.152 C 188.254 134.448, 202.436 134.164, 203.800 132.800 C 204.638 131.962, 205.004 126.460, 205.015 114.550 C 205.025 103.009, 205.429 96.723, 206.265 95.096 C 208.349 91.042, 212.596 88.559, 217.140 88.740 C 225.393 89.069, 227 93.469, 227 115.744 C 227 133.986, 227.175 134.421, 234.172 133.620 C 236.552 133.347, 240.412 133.096, 242.750 133.062 L 247 133 247.006 117.250 C 247.013 95.622, 248.459 91.348, 256.521 89.122 C 259.358 88.339, 260.892 88.458, 263.408 89.657 C 269.099 92.371, 269.468 93.744, 269.823 113.500 C 270.001 123.400, 270.505 131.869, 270.943 132.320 C 272.092 133.502, 284.948 133.970, 287.685 132.930 L 290 132.050 290 111.152 C 290 87.587, 289.238 84.219, 282.453 77.814 C 277.835 73.454, 273.978 72.159, 265.500 72.120 C 256.477 72.078, 252.544 73.445, 244.472 79.424 C 243.616 80.058, 241.926 79.236, 239.088 76.807 C 236.179 74.317, 233.277 72.930, 229.309 72.133 C 222.558 70.777, 221.892 70.797, 215.576 72.530 M 329.871 72.017 C 322.436 73.274, 316.346 76.521, 311.032 82.063 C 303.286 90.142, 300.947 101.812, 304.692 113.692 C 309.873 130.128, 334.169 139.733, 352.239 132.491 C 355.683 131.111, 359.850 128.887, 361.500 127.548 L 364.500 125.115 359.257 119.826 L 354.014 114.538 350.757 116.245 C 342.791 120.422, 333.779 120.016, 328.184 115.228 C 326.431 113.728, 324.885 111.375, 324.748 110 L 324.500 107.500 346.689 107.231 C 372.206 106.922, 371.056 107.438, 368.955 97.243 C 365.957 82.695, 356.947 74.140, 342.411 72.039 C 338.610 71.489, 335.275 71.084, 335 71.137 C 334.725 71.191, 332.417 71.587, 329.871 72.017 M 478.737 72.384 C 475.567 73.077, 471.648 74.624, 470.027 75.822 C 466.204 78.648, 465 78.571, 465 75.500 L 465 73 455 73 L 445 73 445 102.378 C 445 126.369, 445.257 131.969, 446.403 132.920 C 447.293 133.658, 450.859 133.977, 456.153 133.792 L 464.500 133.500 465 115.500 C 465.470 98.587, 465.643 97.300, 467.868 94.181 C 472.215 88.085, 480.763 87.031, 486.234 91.916 L 489.500 94.833 490 113.597 L 490.500 132.361 493 132.997 C 496.201 133.811, 507.335 133.529, 508.846 132.595 C 509.658 132.093, 510 125.680, 510 110.936 C 510 90.874, 509.899 89.780, 507.600 85.014 C 502.428 74.294, 491.625 69.567, 478.737 72.384 M 631.057 72.136 C 628.064 72.633, 624.914 73.637, 624.057 74.368 C 621.316 76.707, 619.406 76.879, 618.170 74.900 C 617.147 73.262, 615.743 73, 607.992 73 L 599 73 598.842 111.750 C 598.754 133.063, 598.766 151.380, 598.866 152.456 C 599.147 155.455, 600.788 155.968, 610.143 155.985 C 617.111 155.997, 618.904 155.694, 619.393 154.418 C 619.727 153.548, 620 147.473, 620 140.918 C 620 134.363, 620.251 129, 620.558 129 C 620.864 129, 623.227 130.222, 625.808 131.716 C 632.116 135.368, 643.134 135.589, 650.042 132.202 C 661.026 126.817, 666.165 118.323, 666.970 104.221 C 667.463 95.584, 667.309 94.537, 664.735 89.092 C 660.130 79.349, 653.249 73.816, 643.566 72.070 C 640.303 71.481, 637.378 71.053, 637.066 71.117 C 636.755 71.181, 634.051 71.640, 631.057 72.136 M 392.196 73.839 C 382.263 77.379, 377.536 83.902, 378.204 93.147 C 378.636 99.117, 380.803 102.731, 385.454 105.236 C 388.171 106.699, 396.450 108.925, 403 109.953 C 411.471 111.282, 414 112.544, 414 115.440 C 414 118.872, 411.352 120.001, 403.316 119.994 C 396.487 119.989, 390.404 118.853, 386.317 116.820 C 385.117 116.223, 383.509 115.974, 382.744 116.268 C 380.872 116.986, 376.678 128.078, 377.839 129.239 C 379.397 130.797, 396.259 134.742, 401.857 134.858 C 407.478 134.974, 418.745 132.608, 423 130.418 C 427.292 128.208, 430.558 124.445, 432.424 119.561 C 433.965 115.526, 434.048 114.241, 433.007 110.525 C 431.063 103.580, 427.015 100.522, 415.850 97.560 C 410.542 96.152, 404.860 95, 403.222 95 C 398.819 95, 395.684 90.291, 398.127 87.347 C 399.953 85.147, 409.272 84.674, 416.848 86.397 C 420.724 87.279, 424.357 88, 424.922 88 C 425.984 88, 429.545 80.937, 430.155 77.620 C 430.727 74.508, 424.153 72.786, 410 72.342 C 399.590 72.015, 396.613 72.265, 392.196 73.839 M 539.500 72.591 C 531.519 74.481, 528.886 75.469, 527.376 77.137 C 525.736 78.950, 525.790 79.331, 528.510 85.021 C 530.082 88.309, 531.753 91, 532.224 91 C 532.694 91, 534.838 90.103, 536.987 89.007 C 539.136 87.911, 541.930 86.992, 543.197 86.966 C 555.371 86.713, 559.062 87.847, 561.177 92.489 C 563.328 97.209, 561.868 98.111, 552.262 98.002 C 538.165 97.841, 528.832 101.028, 524.632 107.439 C 522.144 111.236, 522.435 121.350, 525.159 125.757 C 527.819 130.062, 536.101 133.996, 544.046 134.729 C 548.646 135.154, 550.446 134.808, 554.609 132.698 C 557.368 131.300, 560.215 129.446, 560.935 128.578 C 562.823 126.303, 564 126.635, 564 129.441 C 564 130.784, 564.526 132.207, 565.169 132.604 C 566.733 133.571, 576.785 134.075, 580.348 133.365 L 583.196 132.798 582.761 111.649 C 582.278 88.181, 581.747 85.628, 576.117 79.675 C 570.615 73.856, 567.211 72.764, 553.500 72.419 C 546.900 72.253, 540.600 72.331, 539.500 72.591 M 331.418 85.915 C 328.278 87.266, 324 92.838, 324 95.577 L 324 98 335.750 97.985 C 349.472 97.967, 350.854 97.475, 349.097 93.234 C 346.643 87.309, 337.234 83.414, 331.418 85.915 M 626 88.795 C 622.426 91.210, 621.179 92.978, 619.941 97.386 C 618.173 103.680, 619.656 110.856, 623.525 114.725 C 626.493 117.693, 627.359 118, 632.765 118 C 640.039 118, 643.080 115.976, 645.559 109.485 C 647.019 105.662, 647.105 104.148, 646.136 99.324 C 645.510 96.206, 644.250 92.829, 643.337 91.820 C 639.059 87.093, 630.681 85.631, 626 88.795 M 133.705 90.018 C 132.134 91.253, 130.896 91.641, 130.511 91.018 C 130.165 90.458, 128.814 90, 127.508 90 C 124.845 90, 123.474 92.769, 124.515 96.048 C 125.570 99.372, 123.344 101.079, 118.883 100.365 C 114.646 99.688, 114.756 99.530, 114.593 106.500 L 114.500 110.500 109.750 110.200 C 104.611 109.875, 104.425 110.115, 104.932 116.390 C 105.224 120.006, 103.796 120.917, 98.873 120.256 C 94.713 119.698, 94.444 120.093, 94.892 126.092 C 94.999 127.518, 94.391 129.260, 93.543 129.964 C 89.975 132.925, 93.089 139, 98.174 139 C 99.558 139, 101.487 138.120, 102.460 137.044 C 104.010 135.331, 104.412 135.269, 105.687 136.544 C 107.727 138.584, 109.636 138.358, 111.380 135.868 C 112.683 134.008, 112.690 133.457, 111.436 131.543 C 110.131 129.552, 110.215 129.146, 112.349 127.141 C 114.433 125.184, 114.844 125.107, 115.972 126.467 C 117.705 128.555, 118.838 128.397, 121.117 125.750 L 123.055 123.500 124.649 125.750 C 126.750 128.714, 129.764 128.612, 131.168 125.530 C 133.249 120.964, 127.467 117.754, 124.360 121.750 C 123.073 123.406, 122.919 123.395, 121.487 121.541 C 120.119 119.770, 120.155 119.401, 121.855 117.700 C 123.437 116.118, 124.055 116.017, 125.736 117.067 C 129.625 119.496, 133.496 115.625, 131.067 111.736 C 130.013 110.048, 130.124 109.431, 131.778 107.778 C 133.431 106.124, 134.048 106.013, 135.736 107.067 C 136.835 107.754, 138.528 108.011, 139.497 107.640 C 140.905 107.099, 141.152 106.172, 140.730 103.021 C 140.368 100.325, 140.643 98.711, 141.600 97.917 C 143.793 96.097, 143.324 91.341, 140.777 89.557 C 137.871 87.521, 136.789 87.592, 133.705 90.018 M 114.512 91.962 C 113.662 94.639, 115.635 98, 118.057 98 C 120.763 98, 122.767 93.630, 121.025 91.530 C 119.199 89.329, 115.265 89.591, 114.512 91.962 M 107.160 92.240 C 105.355 94.045, 105.792 96, 108 96 C 109.313 96, 110 95.333, 110 94.059 C 110 91.596, 108.661 90.739, 107.160 92.240 M 96.667 92.667 C 95.290 94.043, 96.073 96, 98 96 C 99.333 96, 100 95.333, 100 94 C 100 92.073, 98.043 91.290, 96.667 92.667 M 130.563 96.898 C 130.213 97.464, 130.843 98.843, 131.964 99.964 C 134.348 102.348, 135 102.496, 135 100.655 C 135 98.719, 131.348 95.628, 130.563 96.898 M 104.512 101.962 C 103.674 104.604, 105.624 108, 107.978 108 C 109.028 108, 110.578 107.013, 111.423 105.806 C 112.812 103.824, 112.802 103.439, 111.325 101.806 C 109.130 99.381, 105.304 99.468, 104.512 101.962 M 97.027 102.467 C 95.645 104.133, 96.454 106, 98.559 106 C 100.120 106, 100.562 102.466, 99.113 101.570 C 98.626 101.269, 97.687 101.672, 97.027 102.467 M 120.415 107.137 C 120.022 107.773, 120.768 109.076, 122.106 110.093 C 124.143 111.640, 124.550 111.687, 124.833 110.407 C 125.183 108.823, 123.328 106, 121.937 106 C 121.486 106, 120.802 106.512, 120.415 107.137 M 545.250 109.989 C 539.702 113.372, 541.184 119.218, 548.273 121.914 C 553.978 124.083, 563 117.993, 563 111.972 C 563 108.627, 561.602 107.999, 554.168 108.004 C 550.283 108.006, 547.478 108.631, 545.250 109.989 M 95.153 111.750 C 93.904 114.135, 95.507 118, 97.746 118 C 98.741 118, 100.331 117.094, 101.279 115.988 C 102.707 114.320, 102.789 113.635, 101.760 111.988 C 100.226 109.532, 96.388 109.393, 95.153 111.750 M 134.530 111.904 C 133.686 114.564, 135.592 118, 137.913 118 C 142.555 118, 142.446 110.738, 137.796 110.192 C 135.880 109.967, 134.999 110.429, 134.530 111.904 M 110.461 117.064 C 110.097 117.652, 110.632 118.764, 111.650 119.535 C 114.046 121.350, 115 121.350, 115 119.535 C 115 117.586, 111.362 115.605, 110.461 117.064 M 135.964 122.543 C 134.845 123.892, 134.861 124.299, 136.064 125.060 C 138.063 126.323, 139.500 125.671, 139.500 123.500 C 139.500 121.054, 137.622 120.546, 135.964 122.543 M 101 127.345 C 101 128.085, 101.844 129.454, 102.876 130.388 C 104.463 131.824, 104.839 131.862, 105.309 130.637 C 105.615 129.840, 105.073 128.471, 104.104 127.594 C 101.952 125.647, 101 125.570, 101 127.345 M 114.337 131.564 C 113.521 133.692, 115.608 138, 117.456 138 C 119.494 138, 122.193 133.666, 121.416 131.641 C 120.593 129.496, 115.153 129.437, 114.337 131.564 M 125.964 132.543 C 124.845 133.892, 124.861 134.299, 126.064 135.060 C 128.063 136.323, 129.500 135.671, 129.500 133.500 C 129.500 131.054, 127.622 130.546, 125.964 132.543 M 135.667 131.667 C 134.149 133.185, 135.147 135, 137.500 135 C 139.333 135, 140 134.467, 140 133 C 140 131.049, 137.159 130.175, 135.667 131.667" stroke="none" fill="#0bcd6b" fill-rule="evenodd"/></svg>